<?xml version="1.0" standalone="no"?>
<!DOCTYPE svg PUBLIC "-//W3C//DTD SVG 20010904//EN"
 "http://www.w3.org/TR/2001/REC-SVG-20010904/DTD/svg10.dtd">
<svg version="1.0" xmlns="http://www.w3.org/2000/svg"
 width="2000.000000pt" height="2000.000000pt" viewBox="0 0 2000.000000 2000.000000"
 preserveAspectRatio="xMidYMid meet">
<metadata>
Created by potrace 1.11, written by Peter Selinger 2001-2013
</metadata>
<g transform="translate(0.000000,2000.000000) scale(0.100000,-0.100000)"
fill="#000000" stroke="none">
<path d="M2449 18616 c-2 -2 -26 -6 -54 -10 -59 -7 -136 -27 -187 -49 -21 -9
-38 -14 -38 -11 0 2 -24 -8 -52 -23 -29 -15 -56 -26 -60 -25 -5 1 -8 -2 -8 -8
0 -5 -6 -10 -12 -10 -14 0 -146 -97 -200 -146 -74 -68 -167 -185 -194 -244 -4
-8 -13 -22 -19 -30 -27 -33 -79 -186 -113 -330 -3 -14 -7 -3408 -9 -7542 l-3
-7518 72 0 c93 -1 16664 -1 16816 0 l112 0 -3 7518 c-1 4134 -6 7528 -10 7542
-4 14 -9 34 -11 45 -20 97 -39 150 -85 244 -57 115 -114 195 -205 287 -137
139 -286 224 -491 283 l-90 26 -7576 2 c-4167 2 -7578 1 -7580 -1z m7846
-4260 c22 -3 72 -11 110 -18 39 -6 75 -12 80 -13 82 -9 310 -73 433 -121 62
-24 115 -44 118 -44 14 0 308 -152 349 -180 24 -17 46 -30 49 -30 13 0 239
-169 308 -231 160 -144 328 -323 328 -349 0 -6 3 -10 8 -10 16 0 171 -223 229
-330 67 -124 153 -302 157 -325 1 -5 7 -19 13 -30 6 -11 25 -65 43 -120 31
-97 36 -114 46 -164 3 -14 7 -28 9 -32 5 -8 40 -182 49 -244 4 -23 9 -52 11
-65 24 -118 24 -496 1 -665 -10 -72 -28 -174 -37 -215 -6 -25 -13 -55 -15 -67
-23 -117 -137 -440 -185 -521 -10 -18 -19 -37 -19 -41 0 -5 -18 -41 -40 -81
-22 -40 -40 -79 -40 -86 0 -7 -3 -14 -7 -16 -5 -1 -56 -97 -114 -213 -96 -190
-299 -589 -496 -974 -41 -80 -79 -151 -85 -158 -6 -7 -8 -13 -6 -13 3 0 -21
-51 -53 -112 -33 -62 -59 -118 -59 -123 0 -6 -4 -15 -9 -20 -11 -11 -49 -86
-291 -560 -89 -176 -207 -405 -260 -510 -54 -104 -161 -314 -238 -465 -228
-448 -366 -718 -515 -1010 -77 -151 -146 -285 -151 -297 -14 -30 -19 -29 -37
10 -8 17 -74 147 -146 287 -122 239 -183 358 -493 965 -67 132 -171 335 -230
450 -59 116 -167 327 -240 470 -73 143 -181 355 -240 470 -124 242 -326 638
-462 905 -52 102 -100 195 -106 208 -7 12 -16 31 -22 41 -42 85 -365 717 -456
891 -93 181 -174 443 -208 683 -4 27 -9 59 -12 70 -24 121 -23 569 2 734 15
105 36 216 54 288 11 44 22 89 25 99 18 76 78 225 145 361 253 513 586 880
1060 1165 316 191 721 323 1090 355 41 4 77 9 79 10 5 6 432 -3 476 -9z"/>
<path d="M9929 12776 c-2 -2 -33 -6 -69 -10 -191 -18 -417 -122 -574 -265 -66
-60 -79 -75 -143 -160 -83 -109 -172 -315 -188 -434 -26 -194 -21 -305 21
-467 25 -94 100 -267 134 -305 10 -11 19 -25 21 -32 9 -29 131 -155 210 -218
90 -72 214 -141 302 -169 29 -9 55 -16 59 -17 4 0 25 -6 46 -13 84 -30 275
-39 406 -19 326 48 603 238 769 525 50 87 112 261 124 350 10 69 10 279 1 343
-24 159 -113 367 -203 472 -5 6 -21 25 -34 43 -66 86 -219 207 -333 263 -86
42 -203 82 -288 97 -60 11 -254 23 -261 16z"/>
</g>
</svg>
